<svg width="53" height="56" viewBox="0 0 53 56" fill="none" xmlns="http://www.w3.org/2000/svg">
<path fill-rule="evenodd" clip-rule="evenodd" d="M51.8486 2.34668C50.2335 -1.43325 37.3648 -0.549892 23.0908 4.29828C8.82206 9.15671 -1.4351 16.1619 0.164306 19.9418C1.48578 23.0387 10.369 23.0028 21.3813 20.2243L22.8339 17.9748C14.2653 20.1884 7.31705 20.2448 6.29972 17.8464C5.07788 14.9704 12.8966 9.62407 23.7883 5.92118C34.6747 2.21829 44.4914 1.55064 45.7184 4.43694C46.9455 7.31297 39.1216 12.6593 28.2299 16.3622C27.1024 16.7474 25.9907 17.0966 24.8947 17.4099L24.1186 19.4796C25.6918 19.0328 27.2965 18.5346 28.9221 17.98C43.1909 13.1267 53.4533 6.12147 51.8486 2.34668Z" fill="#FFCF25"/>
<path d="M26.7646 10.7537C27.5198 8.70962 27.7715 8.33984 28.1543 8.33984C28.5319 8.33984 28.7888 8.64799 29.5492 10.5688C30.4931 12.921 40.4199 38.4817 44.2689 47.8904C46.5448 53.4011 48.3802 54.3872 49.7069 54.7621C50.6561 55.0702 51.6052 55.1318 52.2345 55.1318C52.6121 55.1318 52.869 55.1935 52.869 55.5016C52.869 55.8714 52.2974 55.9998 51.6052 55.9998C50.6561 55.9998 46.0414 55.9998 41.6837 55.8765C40.4828 55.8149 39.7906 55.8149 39.7906 55.4451C39.7906 55.1986 39.9794 55.0754 40.2311 55.0137C40.6087 54.8905 40.9915 54.3307 40.6087 53.3446L34.7354 38.117C34.6096 37.8705 34.4837 37.7473 34.1639 37.7473H20.5663C20.2517 37.7473 20.0576 37.9322 19.9318 38.2454L16.1457 49.1898C15.5741 50.7356 15.2594 52.2199 15.2594 53.3343C15.2594 54.572 16.5861 55.1267 17.6612 55.1267H18.2957C18.7362 55.1267 18.9249 55.25 18.9249 55.4965C18.9249 55.8663 18.5474 55.9947 17.9758 55.9947C16.4603 55.9947 13.7439 55.8098 13.0465 55.8098C12.349 55.8098 8.87231 55.9947 5.90423 55.9947C5.08618 55.9947 4.70337 55.8714 4.70337 55.4965C4.70337 55.25 4.95508 55.1267 5.26972 55.1267C5.71021 55.1267 6.59643 55.0651 7.09985 55.0034C10.005 54.6337 11.2688 52.2815 12.4067 49.1846L26.7646 10.7537ZM33.3301 35.5132C33.6447 35.5132 33.6447 35.3283 33.5818 35.0818L27.5827 18.3649C27.2681 17.4353 26.9534 17.4353 26.6336 18.3649L21.075 35.0767C20.9491 35.3848 21.075 35.5081 21.2637 35.5081H33.3301V35.5132Z" fill="#529FD4"/>
</svg>
